<svg xmlns="http://www.w3.org/2000/svg" width="26" height="36" fill="none" viewBox="0 0 26 36">
  <path fill="#fff" d="M16.636.09h9.341v23.933c-.011 2.273-.585 4.273-1.721 6-1.125 1.716-2.682 3.057-4.67 4.022-1.978.955-4.256 1.432-6.836 1.432-2.239 0-4.284-.386-6.136-1.159a9.749 9.749 0 0 1-4.432-3.682C1.08 28.955.534 26.773.545 24.091h9.478c.034.875.181 1.613.443 2.216.273.602.648 1.057 1.125 1.364.489.295 1.08.443 1.773.443.704 0 1.295-.154 1.772-.46.489-.307.858-.762 1.108-1.364.25-.614.381-1.37.392-2.267V.09Z"/>
</svg>
