<svg xmlns="http://www.w3.org/2000/svg" width="50" height="30" fill="none" viewBox="0 0 50 30">
  <path fill="#FF5A5A" d="M49.989 10.397c.112-2.73-.6-5.44-2.067-7.876-.997-1-2.38-1.675-3.907-1.908a211.798 211.798 0 0 0-19.01-.59 211.815 211.815 0 0 0-18.944.57c-1.245.19-2.398.68-3.316 1.412C.7 3.588.474 6.296.247 8.585a77.36 77.36 0 0 0 0 12.358 15.52 15.52 0 0 0 .682 3.814c.273.963.827 1.854 1.612 2.593.925.77 2.104 1.288 3.384 1.488 4.897.507 9.831.718 14.764.63 7.95.095 14.922 0 23.167-.535 1.312-.187 2.524-.706 3.475-1.487a4.694 4.694 0 0 0 1.386-1.907 17.23 17.23 0 0 0 1.18-6.484c.092-1.068.092-7.514.092-8.658ZM19.87 20.199V8.394l13.446 5.931c-3.77 1.755-8.744 3.738-13.446 5.874Z"/>
</svg>
